<mxfile host="app.diagrams.net" agent="Mozilla/5.0 (Windows NT 10.0; Win64; x64) AppleWebKit/537.36 (KHTML, like Gecko) Chrome/136.0.0.0 Safari/537.36" version="27.0.3">
  <diagram name="Page-1" id="F5AVFvVWdAstfokKBZr_">
    <mxGraphModel grid="1" page="1" gridSize="10" guides="1" tooltips="1" connect="1" arrows="1" fold="1" pageScale="1" pageWidth="850" pageHeight="1100" math="0" shadow="0">
      <root>
        <mxCell id="0" />
        <mxCell id="1" parent="0" />
        <mxCell id="j4vss4hhmaLQO0EESKu9-61" value="" style="edgeStyle=entityRelationEdgeStyle;fontSize=12;html=1;endArrow=ERzeroToMany;startArrow=ERzeroToOne;rounded=0;exitX=0.003;exitY=0.155;exitDx=0;exitDy=0;entryX=0.995;entryY=0.481;entryDx=0;entryDy=0;entryPerimeter=0;exitPerimeter=0;" edge="1" parent="1" source="j4vss4hhmaLQO0EESKu9-48" target="j4vss4hhmaLQO0EESKu9-1">
          <mxGeometry width="100" height="100" relative="1" as="geometry">
            <mxPoint x="750" y="470" as="sourcePoint" />
            <mxPoint x="521.3" y="274.98" as="targetPoint" />
            <Array as="points">
              <mxPoint x="670" y="285" />
            </Array>
          </mxGeometry>
        </mxCell>
        <mxCell id="j4vss4hhmaLQO0EESKu9-1" value="" style="shape=internalStorage;whiteSpace=wrap;html=1;backgroundOutline=1;" vertex="1" parent="1">
          <mxGeometry x="260" y="40" width="260" height="520" as="geometry" />
        </mxCell>
        <mxCell id="j4vss4hhmaLQO0EESKu9-3" value="Snowflake Schema" style="text;html=1;align=center;verticalAlign=middle;rounded=0;fontSize=24;fontColor=light-dark(#000000,#FFFFFF);" vertex="1" parent="1">
          <mxGeometry x="520" y="-210" width="250" height="50" as="geometry" />
        </mxCell>
        <mxCell id="j4vss4hhmaLQO0EESKu9-4" value="Customer_id" style="text;html=1;align=center;verticalAlign=middle;whiteSpace=wrap;rounded=0;fontSize=15;" vertex="1" parent="1">
          <mxGeometry x="310" y="60" width="180" height="40" as="geometry" />
        </mxCell>
        <mxCell id="j4vss4hhmaLQO0EESKu9-5" value="Amount_spent" style="text;html=1;align=center;verticalAlign=middle;whiteSpace=wrap;rounded=0;fontSize=15;" vertex="1" parent="1">
          <mxGeometry x="310" y="100" width="180" height="40" as="geometry" />
        </mxCell>
        <mxCell id="j4vss4hhmaLQO0EESKu9-6" value="Num_of_orders" style="text;html=1;align=center;verticalAlign=middle;whiteSpace=wrap;rounded=0;fontSize=15;" vertex="1" parent="1">
          <mxGeometry x="310" y="140" width="180" height="40" as="geometry" />
        </mxCell>
        <mxCell id="j4vss4hhmaLQO0EESKu9-7" value="Orders_cancelled" style="text;html=1;align=center;verticalAlign=middle;whiteSpace=wrap;rounded=0;fontSize=15;" vertex="1" parent="1">
          <mxGeometry x="310" y="180" width="180" height="40" as="geometry" />
        </mxCell>
        <mxCell id="j4vss4hhmaLQO0EESKu9-8" value="Month" style="text;html=1;align=center;verticalAlign=middle;whiteSpace=wrap;rounded=0;fontSize=15;" vertex="1" parent="1">
          <mxGeometry x="310" y="220" width="180" height="40" as="geometry" />
        </mxCell>
        <mxCell id="j4vss4hhmaLQO0EESKu9-9" value="Monthly_time_spent" style="text;html=1;align=center;verticalAlign=middle;whiteSpace=wrap;rounded=0;fontSize=15;" vertex="1" parent="1">
          <mxGeometry x="310" y="260" width="180" height="40" as="geometry" />
        </mxCell>
        <mxCell id="j4vss4hhmaLQO0EESKu9-10" value="&#xa;no_of_items_clicked&#xa;&#xa;" style="text;html=1;align=center;verticalAlign=middle;whiteSpace=wrap;rounded=0;fontSize=15;" vertex="1" parent="1">
          <mxGeometry x="310" y="320" width="180" height="40" as="geometry" />
        </mxCell>
        <mxCell id="j4vss4hhmaLQO0EESKu9-11" value="&#xa;add_to_cart_items&#xa;&#xa;" style="text;html=1;align=center;verticalAlign=middle;whiteSpace=wrap;rounded=0;fontSize=15;" vertex="1" parent="1">
          <mxGeometry x="310" y="370" width="180" height="40" as="geometry" />
        </mxCell>
        <mxCell id="j4vss4hhmaLQO0EESKu9-12" value="&#xa;no_of_searches&#xa;&#xa;" style="text;html=1;align=center;verticalAlign=middle;whiteSpace=wrap;rounded=0;fontSize=15;" vertex="1" parent="1">
          <mxGeometry x="310" y="420" width="180" height="40" as="geometry" />
        </mxCell>
        <mxCell id="j4vss4hhmaLQO0EESKu9-13" value="&#xa;no_of_items_clicked&#xa;&#xa;" style="text;html=1;align=center;verticalAlign=middle;whiteSpace=wrap;rounded=0;fontSize=15;" vertex="1" parent="1">
          <mxGeometry x="300" y="470" width="180" height="40" as="geometry" />
        </mxCell>
        <mxCell id="j4vss4hhmaLQO0EESKu9-14" value="&#xa;fact_customer_activity_monthly&#xa;&#xa;" style="text;html=1;align=center;verticalAlign=middle;whiteSpace=wrap;rounded=0;fontSize=16;" vertex="1" parent="1">
          <mxGeometry x="275" width="230" height="40" as="geometry" />
        </mxCell>
        <mxCell id="j4vss4hhmaLQO0EESKu9-48" value="" style="shape=internalStorage;whiteSpace=wrap;html=1;backgroundOutline=1;" vertex="1" parent="1">
          <mxGeometry x="760" y="280" width="310" height="320" as="geometry" />
        </mxCell>
        <mxCell id="j4vss4hhmaLQO0EESKu9-49" value="Customer_id" style="text;html=1;align=center;verticalAlign=middle;whiteSpace=wrap;rounded=0;fontSize=15;" vertex="1" parent="1">
          <mxGeometry x="800" y="310" width="200" height="40" as="geometry" />
        </mxCell>
        <mxCell id="j4vss4hhmaLQO0EESKu9-50" value="First_name" style="text;html=1;align=center;verticalAlign=middle;whiteSpace=wrap;rounded=0;fontSize=15;" vertex="1" parent="1">
          <mxGeometry x="800" y="340" width="200" height="40" as="geometry" />
        </mxCell>
        <mxCell id="j4vss4hhmaLQO0EESKu9-51" value="Last_name" style="text;html=1;align=center;verticalAlign=middle;whiteSpace=wrap;rounded=0;fontSize=15;" vertex="1" parent="1">
          <mxGeometry x="800" y="370" width="200" height="40" as="geometry" />
        </mxCell>
        <mxCell id="j4vss4hhmaLQO0EESKu9-52" value="Gender" style="text;html=1;align=center;verticalAlign=middle;whiteSpace=wrap;rounded=0;fontSize=15;" vertex="1" parent="1">
          <mxGeometry x="790" y="400" width="200" height="40" as="geometry" />
        </mxCell>
        <mxCell id="j4vss4hhmaLQO0EESKu9-54" value="Signup_date" style="text;html=1;align=center;verticalAlign=middle;whiteSpace=wrap;rounded=0;fontSize=15;" vertex="1" parent="1">
          <mxGeometry x="800" y="480" width="200" height="40" as="geometry" />
        </mxCell>
        <mxCell id="j4vss4hhmaLQO0EESKu9-55" value="Address_id" style="text;html=1;align=center;verticalAlign=middle;whiteSpace=wrap;rounded=0;fontSize=15;" vertex="1" parent="1">
          <mxGeometry x="800" y="520" width="200" height="40" as="geometry" />
        </mxCell>
        <mxCell id="j4vss4hhmaLQO0EESKu9-56" value="Date_of_birth" style="text;html=1;align=center;verticalAlign=middle;whiteSpace=wrap;rounded=0;fontSize=15;" vertex="1" parent="1">
          <mxGeometry x="800" y="440" width="200" height="40" as="geometry" />
        </mxCell>
        <mxCell id="j4vss4hhmaLQO0EESKu9-57" value="Customer_dim" style="text;html=1;align=center;verticalAlign=middle;whiteSpace=wrap;rounded=0;fontSize=20;" vertex="1" parent="1">
          <mxGeometry x="790" y="220" width="200" height="40" as="geometry" />
        </mxCell>
        <mxCell id="j4vss4hhmaLQO0EESKu9-62" value="" style="shape=internalStorage;whiteSpace=wrap;html=1;backgroundOutline=1;" vertex="1" parent="1">
          <mxGeometry x="-240" y="190" width="310" height="300" as="geometry" />
        </mxCell>
        <mxCell id="j4vss4hhmaLQO0EESKu9-63" value="Date" style="text;html=1;align=center;verticalAlign=middle;whiteSpace=wrap;rounded=0;fontSize=15;" vertex="1" parent="1">
          <mxGeometry x="-215" y="230" width="260" height="50" as="geometry" />
        </mxCell>
        <mxCell id="j4vss4hhmaLQO0EESKu9-64" value="Month" style="text;html=1;align=center;verticalAlign=middle;whiteSpace=wrap;rounded=0;fontSize=15;" vertex="1" parent="1">
          <mxGeometry x="-215" y="270" width="260" height="50" as="geometry" />
        </mxCell>
        <mxCell id="j4vss4hhmaLQO0EESKu9-65" value="Year" style="text;html=1;align=center;verticalAlign=middle;whiteSpace=wrap;rounded=0;fontSize=15;" vertex="1" parent="1">
          <mxGeometry x="-220" y="300" width="260" height="50" as="geometry" />
        </mxCell>
        <mxCell id="j4vss4hhmaLQO0EESKu9-66" value="Month_name" style="text;html=1;align=center;verticalAlign=middle;whiteSpace=wrap;rounded=0;fontSize=15;" vertex="1" parent="1">
          <mxGeometry x="-220" y="340" width="260" height="50" as="geometry" />
        </mxCell>
        <mxCell id="j4vss4hhmaLQO0EESKu9-67" value="Day_of_week" style="text;html=1;align=center;verticalAlign=middle;whiteSpace=wrap;rounded=0;fontSize=15;" vertex="1" parent="1">
          <mxGeometry x="-215" y="380" width="260" height="50" as="geometry" />
        </mxCell>
        <mxCell id="j4vss4hhmaLQO0EESKu9-68" value="Quarter" style="text;html=1;align=center;verticalAlign=middle;whiteSpace=wrap;rounded=0;fontSize=15;" vertex="1" parent="1">
          <mxGeometry x="-230" y="420" width="260" height="50" as="geometry" />
        </mxCell>
        <mxCell id="j4vss4hhmaLQO0EESKu9-69" value="Date_dim" style="text;html=1;align=center;verticalAlign=middle;whiteSpace=wrap;rounded=0;fontSize=22;" vertex="1" parent="1">
          <mxGeometry x="-220" y="120" width="260" height="50" as="geometry" />
        </mxCell>
        <mxCell id="j4vss4hhmaLQO0EESKu9-70" value="" style="edgeStyle=entityRelationEdgeStyle;fontSize=12;html=1;endArrow=ERoneToMany;rounded=0;entryX=0;entryY=0.25;entryDx=0;entryDy=0;" edge="1" parent="1" target="j4vss4hhmaLQO0EESKu9-1">
          <mxGeometry width="100" height="100" relative="1" as="geometry">
            <mxPoint x="70" y="340" as="sourcePoint" />
            <mxPoint x="170" y="240" as="targetPoint" />
            <Array as="points">
              <mxPoint x="-160" y="400" />
            </Array>
          </mxGeometry>
        </mxCell>
        <mxCell id="j4vss4hhmaLQO0EESKu9-71" value="Date" style="text;html=1;align=center;verticalAlign=middle;whiteSpace=wrap;rounded=0;fontSize=15;" vertex="1" parent="1">
          <mxGeometry x="275" y="510" width="180" height="40" as="geometry" />
        </mxCell>
        <mxCell id="26eAhloSEv2_PWvdqbRw-1" value="" style="shape=internalStorage;whiteSpace=wrap;html=1;backgroundOutline=1;" vertex="1" parent="1">
          <mxGeometry x="1230" y="-60" width="310" height="300" as="geometry" />
        </mxCell>
        <mxCell id="26eAhloSEv2_PWvdqbRw-2" value="Address_id" style="text;html=1;align=center;verticalAlign=middle;whiteSpace=wrap;rounded=0;fontSize=15;" vertex="1" parent="1">
          <mxGeometry x="1260" y="-20" width="270" height="50" as="geometry" />
        </mxCell>
        <mxCell id="26eAhloSEv2_PWvdqbRw-3" value="Area" style="text;html=1;align=center;verticalAlign=middle;whiteSpace=wrap;rounded=0;fontSize=15;" vertex="1" parent="1">
          <mxGeometry x="1260" y="30" width="270" height="50" as="geometry" />
        </mxCell>
        <mxCell id="26eAhloSEv2_PWvdqbRw-4" value="Region" style="text;html=1;align=center;verticalAlign=middle;whiteSpace=wrap;rounded=0;fontSize=15;" vertex="1" parent="1">
          <mxGeometry x="1260" y="70" width="270" height="50" as="geometry" />
        </mxCell>
        <mxCell id="26eAhloSEv2_PWvdqbRw-5" value="City" style="text;html=1;align=center;verticalAlign=middle;whiteSpace=wrap;rounded=0;fontSize=15;" vertex="1" parent="1">
          <mxGeometry x="1260" y="110" width="270" height="50" as="geometry" />
        </mxCell>
        <mxCell id="26eAhloSEv2_PWvdqbRw-6" value="Country" style="text;html=1;align=center;verticalAlign=middle;whiteSpace=wrap;rounded=0;fontSize=15;" vertex="1" parent="1">
          <mxGeometry x="1260" y="150" width="270" height="50" as="geometry" />
        </mxCell>
        <mxCell id="26eAhloSEv2_PWvdqbRw-7" value="Address_dim" style="text;html=1;align=center;verticalAlign=middle;whiteSpace=wrap;rounded=0;fontSize=22;" vertex="1" parent="1">
          <mxGeometry x="1240" y="-130" width="270" height="50" as="geometry" />
        </mxCell>
        <mxCell id="26eAhloSEv2_PWvdqbRw-9" value="" style="edgeStyle=entityRelationEdgeStyle;fontSize=12;html=1;endArrow=ERmandOne;startArrow=ERmandOne;rounded=0;entryX=-0.001;entryY=0.442;entryDx=0;entryDy=0;entryPerimeter=0;exitX=1.006;exitY=0.552;exitDx=0;exitDy=0;exitPerimeter=0;" edge="1" parent="1" source="j4vss4hhmaLQO0EESKu9-48" target="26eAhloSEv2_PWvdqbRw-1">
          <mxGeometry width="100" height="100" relative="1" as="geometry">
            <mxPoint x="1070" y="440" as="sourcePoint" />
            <mxPoint x="1170" y="340" as="targetPoint" />
          </mxGeometry>
        </mxCell>
      </root>
    </mxGraphModel>
  </diagram>
</mxfile>
